{
    "accessors": [
        {
            "bufferView": 0,
            "componentType": 5126,
            "count": 35769,
            "max": [
                53.01481628417969,
                168.31605529785156,
                7.3071136474609375
            ],
            "min": [
                -53.01481628417969,
                -0.30755615234375,
                -32.80961608886719
            ],
            "type": "VEC3"
        },
        {
            "bufferView": 1,
            "componentType": 5126,
            "count": 35769,
            "type": "VEC3"
        },
        {
            "bufferView": 2,
            "componentType": 5126,
            "count": 35769,
            "type": "VEC2"
        },
        {
            "bufferView": 3,
            "componentType": 5125,
            "count": 35769,
            "type": "SCALAR"
        }
    ],
    "asset": {
        "generator": "Luxion KeyShot",
        "version": "2.0"
    },
    "bufferViews": [
        {
            "buffer": 0,
            "byteLength": 429228,
            "byteOffset": 0,
            "byteStride": 12
        },
        {
            "buffer": 0,
            "byteLength": 429228,
            "byteOffset": 429228,
            "byteStride": 12
        },
        {
            "buffer": 0,
            "byteLength": 286152,
            "byteOffset": 858456,
            "byteStride": 8
        },
        {
            "buffer": 0,
            "byteLength": 143076,
            "byteOffset": 1144608
        }
    ],
    "buffers": [
        {
            "byteLength": 1287684,
            "uri": "Char_MC_v02.bin"
        }
    ],
    "cameras": [
        {
            "name": "active",
            "perspective": {
                "aspectRatio": 1.0,
                "yfov": 0.6911154697478635,
                "zfar": 0.20058314502239227,
                "znear": 0.0010000000474974513
            },
            "type": "perspective"
        },
        {
            "name": "active",
            "perspective": {
                "aspectRatio": 1.0,
                "yfov": 0.6911154697478635,
                "zfar": 5.060057163238525,
                "znear": 4.533158779144287
            },
            "type": "perspective"
        }
    ],
    "images": [
        {
            "uri": "CuCH_Assembled_v02_group9NotMovedpolySurface18-mesh_10_color.png"
        },
        {
            "uri": "CuCH_Assembled_v02_group9NotMovedpolySurface18-mesh_10_roughness_metalness_transmission.png"
        }
    ],
    "materials": [
        {
            "doubleSided": true,
            "name": "M_Chu_v01",
            "pbrMetallicRoughness": {
                "baseColorTexture": {
                    "index": 0
                },
                "metallicRoughnessTexture": {
                    "index": 1
                }
            }
        }
    ],
    "meshes": [
        {
            "name": "CuCH_Assembled_v02:group9NotMovedpolySurface18-mesh-mesh",
            "primitives": [
                {
                    "attributes": {
                        "NORMAL": 1,
                        "POSITION": 0,
                        "TEXCOORD_0": 2
                    },
                    "indices": 3,
                    "material": 0,
                    "mode": 4
                }
            ]
        }
    ],
    "nodes": [
        {
            "camera": 0,
            "matrix": [
                1.0,
                0.0,
                0.0,
                0.0,
                0.0,
                1.0,
                0.0,
                0.0,
                0.0,
                0.0,
                1.0,
                0.0,
                0.0,
                1.3654926078743301e-09,
                -4.991888999938965e-07,
                1.0
            ],
            "name": "active"
        },
        {
            "camera": 1,
            "matrix": [
                0.999810622526021,
                -1.821565338289144e-07,
                -0.019461100956766852,
                0.0,
                -0.001223254056258922,
                0.9980220319818154,
                -0.06285380248769644,
                0.0,
                0.0194226186722517,
                0.06286570429801941,
                0.9978330135345459,
                0.0,
                0.12671826779842377,
                1.2371017932891846,
                4.779736518859863,
                1.0
            ],
            "name": "active"
        },
        {
            "mesh": 0,
            "name": "CuCH_Assembled_v02:group9NotMovedpolySurface18-mesh"
        },
        {
            "children": [
                2
            ],
            "name": "CuCH_Assembled_v02:group9NotMovedpolySurface18"
        },
        {
            "children": [
                3
            ],
            "name": "CuCH_Assembled_v02:group9NotMovedpolySurface18"
        },
        {
            "children": [
                4
            ],
            "matrix": [
                0.009999999776482582,
                0.0,
                0.0,
                0.0,
                0.0,
                0.009999999776482582,
                0.0,
                0.0,
                0.0,
                0.0,
                0.009999999776482582,
                0.0,
                0.0,
                0.0,
                0.0,
                1.0
            ],
            "name": "CuCH_Assembled_v02:group9NotMovedpolySurface18"
        },
        {
            "children": [
                5
            ],
            "name": "RootNode"
        },
        {
            "children": [
                6
            ],
            "matrix": [
                1.0,
                0.0,
                0.0,
                0.0,
                0.0,
                1.0,
                0.0,
                0.0,
                0.0,
                0.0,
                1.0,
                0.0,
                0.0,
                0.003075560089200735,
                0.12751300632953644,
                1.0
            ],
            "name": "body"
        },
        {
            "children": [
                7
            ],
            "name": "Default"
        },
        {
            "children": [
                8
            ],
            "name": "lux_root"
        },
        {
            "children": [
                9
            ],
            "matrix": [
                1.0,
                0.0,
                0.0,
                0.0,
                0.0,
                1.0,
                0.0,
                0.0,
                0.0,
                0.0,
                1.0,
                0.0,
                0.0,
                1.3654926078743301e-09,
                -4.991888999938965e-07,
                1.0
            ],
            "name": "Char_MC_v01"
        },
        {
            "children": [
                10
            ],
            "name": "Default"
        },
        {
            "children": [
                11
            ],
            "name": "lux_root"
        }
    ],
    "samplers": [
        {
            "magFilter": 9729,
            "minFilter": 9987,
            "wrapS": 10497,
            "wrapT": 10497
        },
        {
            "magFilter": 9729,
            "minFilter": 9987,
            "wrapS": 10497,
            "wrapT": 10497
        }
    ],
    "scenes": [
        {
            "nodes": [
                0,
                1,
                12
            ]
        }
    ],
    "textures": [
        {
            "sampler": 0,
            "source": 0
        },
        {
            "sampler": 1,
            "source": 1
        }
    ]
}