{
	"asset":{
		"generator":"Khronos glTF Blender I/O v4.3.47",
		"version":"2.0"
	},
	"scene":0,
	"scenes":[
		{
			"name":"Scene",
			"nodes":[
				0
			]
		}
	],
	"nodes":[
		{
			"mesh":0,
			"name":"DefaultCone"
		}
	],
	"materials":[
		{
			"doubleSided":true,
			"name":"DefaultMaterial",
			"pbrMetallicRoughness":{
				"baseColorTexture":{
					"index":0
				},
				"metallicRoughnessTexture":{
					"index":0
				}
			}
		}
	],
	"meshes":[
		{
			"name":"Cone",
			"primitives":[
				{
					"attributes":{
						"POSITION":0,
						"NORMAL":1,
						"TEXCOORD_0":2
					},
					"indices":3,
					"material":0
				}
			]
		}
	],
	"textures":[
		{
			"sampler":0,
			"source":0
		},
		{
			"sampler":0,
			"source":1
		}
	],
	"images":[
		{
			"mimeType":"image/png",
			"name":"DefaultTexture",
			"uri":"DefaultTexture.png"
		}
	],
	"accessors":[
		{
			"bufferView":0,
			"componentType":5126,
			"count":65,
			"max":[
				0.5,
				1,
				0.5
			],
			"min":[
				-0.5,
				0,
				-0.5
			],
			"type":"VEC3"
		},
		{
			"bufferView":1,
			"componentType":5126,
			"count":65,
			"type":"VEC3"
		},
		{
			"bufferView":2,
			"componentType":5126,
			"count":65,
			"type":"VEC2"
		},
		{
			"bufferView":3,
			"componentType":5123,
			"count":186,
			"type":"SCALAR"
		}
	],
	"bufferViews":[
		{
			"buffer":0,
			"byteLength":780,
			"byteOffset":0,
			"target":34962
		},
		{
			"buffer":0,
			"byteLength":780,
			"byteOffset":780,
			"target":34962
		},
		{
			"buffer":0,
			"byteLength":520,
			"byteOffset":1560,
			"target":34962
		},
		{
			"buffer":0,
			"byteLength":372,
			"byteOffset":2080,
			"target":34963
		}
	],
	"samplers":[
		{
			"magFilter":9729,
			"minFilter":9987
		}
	],
	"buffers":[
		{
			"byteLength":2452,
			"uri":"DefaultCone.bin"
		}
	]
}
